<?xml version="1.0" encoding="UTF-8"?>
<svg width="1137px" height="1077px" viewBox="46 46 1137 1077" xmlns="http://www.w3.org/2000/svg" xmlns:xlink="http://www.w3.org/1999/xlink" version="1.1">
 <!-- Generated by Pixelmator Pro 2.0.5 -->
 <g id="Logo">
  <defs>
   <path id="Unten" d="M706.689 560.317 C655.258 533.651 572.074 533.172 520.894 559.248 L118.253 764.392 C67.073 790.468 67.275 833.225 118.706 859.891 L523.311 1069.677 C574.742 1096.343 657.926 1096.822 709.106 1070.745 L1111.747 865.602 C1162.927 839.526 1162.725 796.769 1111.294 770.103 Z"/>
  </defs>
  <use id="Unten-1" xlink:href="#Unten" fill="#ffffff" fill-opacity="1" stroke="none"/>
  <defs>
   <path id="stroke-path" d="M627.828 1104.828 L641.234 1103.984 660.719 1101.531 679.672 1097.531 697.656 1092 711.734 1086.188 1118.938 878.781 1132.047 871.094 1138.875 866.094 1146.469 859.313 1151.641 853.563 1157.063 845.891 1160.469 839.313 1163.516 830.641 1164.953 821.469 1164.688 812.234 1162.75 803.156 1159.219 794.453 1154.344 786.375 1149.609 780.375 1142.594 773.297 1136.297 768.094 1127.203 761.875 1118.422 756.922 713.359 546.891 703.938 542.422 692.422 537.891 680.359 534.047 667.875 530.906 655.063 528.438 642.016 526.656 628.734 525.5 612.156 525 598.781 525.328 585.547 526.328 572.5 527.969 559.703 530.281 547.234 533.297 535.203 537 523.719 541.391 514.328 545.766 111.188 751.172 102.453 756.031 93.375 762.172 87.094 767.328 80.109 774.359 75.406 780.328 70.625 788.281 67.781 795.078 65.578 803.766 64.953 811.031 65.625 820.047 67.969 829.063 71.875 837.672 77.094 845.609 82.047 851.484 89.359 858.438 95.813 863.484 102.859 868.172 111.563 873.094 516.625 1083.125 526.047 1087.594 537.625 1092.156 552.656 1096.797 565.313 1099.781 581.375 1102.547 594.641 1104.016 611.203 1104.922 Z"/>
  </defs>
  <use id="Unten-2" stroke="#009485" stroke-opacity="1" stroke-linecap="round" fill="none" stroke-width="30" xlink:href="#stroke-path"/>
  <defs>
   <path id="Mitte" d="M706.689 330.317 C655.258 303.651 572.074 303.172 520.894 329.248 L118.253 534.392 C67.073 560.468 67.275 603.225 118.706 629.891 L523.311 839.677 C574.742 866.343 657.926 866.822 709.106 840.745 L1111.747 635.602 C1162.927 609.526 1162.725 566.769 1111.294 540.103 Z"/>
  </defs>
  <use id="Mitte-1" xlink:href="#Mitte" fill="#ffffff" fill-opacity="0.599" stroke="none"/>
  <defs>
   <path id="stroke-path-1" d="M627.828 874.828 L641.234 873.984 660.719 871.531 679.672 867.531 697.656 862 711.734 856.188 1118.938 648.781 1132.047 641.094 1138.875 636.094 1146.469 629.313 1151.641 623.563 1157.063 615.891 1160.469 609.313 1163.516 600.641 1164.953 591.469 1164.688 582.234 1162.75 573.156 1159.219 564.453 1154.344 556.375 1149.609 550.375 1142.594 543.297 1136.297 538.094 1127.203 531.875 1118.422 526.922 713.359 316.891 703.938 312.422 692.422 307.891 680.359 304.047 667.875 300.906 655.063 298.438 642.016 296.656 628.734 295.5 612.156 295 598.781 295.328 585.547 296.328 572.5 297.969 559.703 300.281 547.234 303.297 535.203 307 523.719 311.391 514.328 315.766 111.188 521.172 102.453 526.031 93.375 532.172 87.094 537.328 80.109 544.359 75.406 550.328 70.625 558.281 67.781 565.078 65.578 573.766 64.953 581.031 65.625 590.047 67.969 599.063 71.875 607.672 77.094 615.609 82.047 621.484 89.359 628.438 95.813 633.484 102.859 638.172 111.563 643.094 516.625 853.125 526.047 857.594 537.625 862.156 552.656 866.797 565.313 869.781 581.375 872.547 594.641 874.016 611.203 874.922 Z"/>
  </defs>
  <use id="Mitte-2" stroke="#009485" stroke-opacity="1" stroke-linecap="round" fill="none" stroke-width="30" xlink:href="#stroke-path-1"/>
  <defs>
   <path id="Oben" d="M706.689 100.323 C655.258 73.657 572.074 73.178 520.894 99.255 L118.253 304.398 C67.073 330.474 67.275 373.231 118.706 399.897 L523.311 609.683 C574.742 636.349 657.926 636.828 709.106 610.752 L1111.747 405.608 C1162.927 379.532 1162.725 336.775 1111.294 310.109 Z"/>
  </defs>
  <use id="Oben-1" xlink:href="#Oben" fill="#ffffff" fill-opacity="0.396" stroke="none"/>
  <defs>
   <path id="stroke-path-2" d="M627.828 644.828 L641.234 643.984 660.719 641.531 679.672 637.547 697.672 632.016 711.734 626.172 1118.938 418.781 1132.047 411.094 1138.875 406.094 1146.453 399.313 1151.625 393.578 1157.063 385.891 1160.469 379.328 1163.516 370.641 1164.953 361.469 1164.688 352.234 1162.75 343.156 1159.219 334.453 1154.344 326.391 1149.609 320.391 1142.594 313.297 1136.297 308.094 1127.203 301.875 1118.422 296.922 713.359 86.891 703.938 82.422 692.406 77.891 680.359 74.063 667.875 70.906 655.063 68.453 642.016 66.656 628.734 65.5 612.141 65.016 598.781 65.344 585.547 66.344 572.5 67.984 559.703 70.297 547.234 73.313 535.203 77 523.703 81.406 514.313 85.781 111.188 291.172 102.453 296.031 93.375 302.172 87.094 307.328 80.094 314.359 75.406 320.359 70.641 328.281 67.781 335.063 65.578 343.766 64.953 351.031 65.625 360.078 67.969 369.078 71.875 377.672 77.094 385.625 82.047 391.484 89.375 398.453 95.828 403.484 102.859 408.172 111.563 413.094 516.625 623.125 526.047 627.594 537.625 632.156 552.641 636.797 565.313 639.797 581.359 642.547 594.625 644.031 611.203 644.938 Z"/>
  </defs>
  <use id="Oben-2" stroke="#009485" stroke-opacity="1" stroke-linecap="round" fill="none" stroke-width="30" xlink:href="#stroke-path-2"/>
 </g>
</svg>
